<?xml version="1.0" encoding="UTF-8"?><svg id="b" xmlns="http://www.w3.org/2000/svg" viewBox="0 0 660.98 230.26"><g id="c"><path d="M239.51,143.89l-.85-8.54c-2.94,4.93-9.87,9.97-20.6,9.97-17.56,0-33.13-12.91-33.13-35.12s16.42-35.02,33.88-35.02c16.33,0,26.77,9.4,30.37,20.5l-10.73,4.08c-2.28-7.59-8.92-14.05-19.65-14.05s-22.3,7.78-22.3,24.49,10.63,24.68,22.21,24.68c13.57,0,18.7-9.3,19.27-15.09h-22.21v-9.97h32.94v34.07h-9.21Z" fill="#171715"/><path d="M286.39,108.58c-1.23-.19-2.47-.28-3.61-.28-8.54,0-12.43,4.93-12.43,13.57v22.02h-11.01v-46.22h10.73v7.4c2.18-5.03,7.31-7.97,13.38-7.97,1.33,0,2.47.19,2.94.28v11.2Z" fill="#171715"/><path d="M333.94,130.7c-2.47,8.07-9.78,14.62-20.88,14.62-12.53,0-23.63-9.11-23.63-24.77,0-14.62,10.82-24.3,22.49-24.3,14.24,0,22.59,9.4,22.59,24.01,0,1.8-.19,3.32-.29,3.51h-33.79c.28,7.02,5.79,12.05,12.62,12.05s10.06-3.51,11.58-8.07l9.3,2.94ZM323.41,115.7c-.19-5.41-3.8-10.25-11.39-10.25-6.93,0-10.91,5.31-11.29,10.25h22.68Z" fill="#171715"/><path d="M343.57,162.59l11.11-24.2-19.74-40.72h12.43l13.29,29.23,12.43-29.23h11.67l-29.42,64.92h-11.77Z" fill="#171715"/><path d="M400.95,143.89h-11.01v-68.72h11.01v26.96c3.13-4.08,8.35-5.79,13.19-5.79,11.39,0,16.89,8.16,16.89,18.32v29.23h-11.01v-27.34c0-5.7-2.56-10.25-9.49-10.25-6.07,0-9.4,4.55-9.59,10.44v27.15Z" fill="#171715"/><path d="M452.54,117.41l11.86-1.8c2.66-.38,3.42-1.71,3.42-3.32,0-3.89-2.66-7.02-8.73-7.02s-9.02,3.7-9.49,8.35l-10.06-2.28c.85-7.97,8.07-15.09,19.46-15.09,14.24,0,19.65,8.07,19.65,17.27v22.97c0,4.18.48,6.93.57,7.4h-10.25c-.09-.29-.47-2.18-.47-5.89-2.18,3.51-6.74,7.31-14.24,7.31-9.68,0-15.66-6.64-15.66-13.95,0-8.26,6.07-12.81,13.95-13.95ZM467.82,124.72v-2.09l-12.05,1.8c-3.42.57-6.17,2.47-6.17,6.27,0,3.13,2.37,5.98,6.74,5.98,6.17,0,11.48-2.94,11.48-11.96Z" fill="#171715"/><path d="M509.42,143.89h-11.01l-18.79-46.22h12.15l12.24,33.03,11.96-33.03h11.58l-18.13,46.22Z" fill="#171715"/><path d="M572.91,130.7c-2.47,8.07-9.78,14.62-20.88,14.62-12.53,0-23.63-9.11-23.63-24.77,0-14.62,10.82-24.3,22.49-24.3,14.24,0,22.59,9.4,22.59,24.01,0,1.8-.19,3.32-.29,3.51h-33.79c.28,7.02,5.79,12.05,12.62,12.05s10.06-3.51,11.58-8.07l9.3,2.94ZM562.38,115.7c-.19-5.41-3.8-10.25-11.39-10.25-6.93,0-10.91,5.31-11.29,10.25h22.68Z" fill="#171715"/><path d="M592.54,143.89h-11.01v-46.22h10.73v6.17c3.04-5.31,8.54-7.5,13.67-7.5,11.29,0,16.7,8.16,16.7,18.32v29.23h-11.01v-27.34c0-5.7-2.56-10.25-9.49-10.25-6.26,0-9.59,4.84-9.59,10.91v26.67Z" fill="#171715"/><path d="M149.44,75.45l-18.67-10.96h-1.01l-16.68,9.79v-20.19s-18.67-10.96-18.67-10.96h-1.01l-18.67,10.96v20.19s-16.68-9.79-16.68-9.79h-1.01l-18.67,10.96v.72s0,78.5,0,78.5l18.67,11.12h1.02l16.67-9.92v20.16s18.67,11.12,18.67,11.12h1.02l18.67-11.12v-20.16s16.67,9.92,16.67,9.92h1.02l18.67-11.12v-79.21ZM57.54,66.51l16.7,9.81-16.7,9.94-16.7-9.94,16.7-9.81ZM40.36,78.36l16.18,9.63v54.28l-16.18,9.5v-73.41ZM56.54,144.59v18.57l-15.7-9.35,15.7-9.22ZM58.54,163.16v-18.57l15.7,9.22-15.7,9.35ZM74.72,151.77l-16.18-9.5v-54.28l16.18-9.63v73.41ZM111.08,76.17v19.46l-16.18-9.5v-19.49l16.18-9.63v19.16ZM93.9,107.61l-16.7-9.94,16.7-9.81,16.7,9.81-16.7,9.94ZM94.9,64.31v-18.57l15.7,9.22-15.7,9.35ZM92.9,45.74v18.57l-15.7-9.35,15.7-9.22ZM76.72,57l16.18,9.63v19.49l-16.18,9.5v-38.63ZM76.72,99.71l16.18,9.63v54.28l-16.18,9.5v-73.41ZM92.9,165.94v18.57l-15.7-9.35,15.7-9.22ZM94.9,184.51v-18.57l15.7,9.22-15.7,9.35ZM111.08,173.12l-16.18-9.5v-54.28l16.18-9.63v73.41ZM131.26,67.09l15.7,9.22-15.7,9.35v-18.57ZM129.26,67.09v18.57l-15.7-9.35,15.7-9.22ZM113.08,78.36l16.18,9.63v54.28l-16.18,9.5v-73.41ZM130.26,163.75l-16.7-9.95,16.7-9.81,16.7,9.81-16.7,9.95ZM147.44,151.77l-16.18-9.5v-54.28l16.18-9.63v73.41Z" fill="#171715"/><rect x="0" width="660.98" height="230.26" fill="none"/></g></svg>