<?xml version="1.0" encoding="UTF-8"?><svg id="b" xmlns="http://www.w3.org/2000/svg" viewBox="0 0 151.08 184"><g id="c"><path d="M131.08,52.32l-18.67-10.96h-1.01l-16.68,9.79v-20.19s-18.67-10.96-18.67-10.96h-1.01l-18.67,10.96v20.19s-16.68-9.79-16.68-9.79h-1.01l-18.67,10.96v.72s0,78.5,0,78.5l18.67,11.12h1.02l16.67-9.92v20.16s18.67,11.12,18.67,11.12h1.02l18.67-11.12v-20.16s16.67,9.92,16.67,9.92h1.02l18.67-11.12V52.32ZM39.18,43.38l16.7,9.81-16.7,9.94-16.7-9.94,16.7-9.81ZM22,55.23l16.18,9.63v54.28l-16.18,9.5V55.23ZM38.18,121.46v18.57l-15.7-9.35,15.7-9.22ZM40.18,140.03v-18.57l15.7,9.22-15.7,9.35ZM56.36,128.64l-16.18-9.5v-54.28l16.18-9.63v73.41ZM92.72,53.04v19.46l-16.18-9.5v-19.49l16.18-9.63v19.16ZM75.54,84.48l-16.7-9.94,16.7-9.81,16.7,9.81-16.7,9.94ZM76.54,41.18v-18.57l15.7,9.22-15.7,9.35ZM74.54,22.61v18.57l-15.7-9.35,15.7-9.22ZM58.36,33.87l16.18,9.63v19.49l-16.18,9.5v-38.63ZM58.36,76.58l16.18,9.63v54.28l-16.18,9.5v-73.41ZM74.54,142.81v18.57l-15.7-9.35,15.7-9.22ZM76.54,161.38v-18.57l15.7,9.22-15.7,9.35ZM92.72,149.99l-16.18-9.5v-54.28l16.18-9.63v73.41ZM112.9,43.97l15.7,9.22-15.7,9.35v-18.57ZM110.9,43.97v18.57l-15.7-9.35,15.7-9.22ZM94.72,55.23l16.18,9.63v54.28l-16.18,9.5V55.23ZM111.9,140.63l-16.7-9.95,16.7-9.81,16.7,9.81-16.7,9.95ZM129.08,128.64l-16.18-9.5v-54.28l16.18-9.63v73.41Z"/><rect width="151.08" height="184" fill="none"/></g></svg>