<?xml version="1.0" encoding="UTF-8"?><svg id="b" xmlns="http://www.w3.org/2000/svg" viewBox="0 0 630.98 230.26"><g id="c"><path d="M173.11,75.45l-18.67-10.96h-1.01l-16.68,9.79v-20.19s-18.67-10.96-18.67-10.96h-1.01l-18.67,10.96v20.19s-16.68-9.79-16.68-9.79h-1.01l-18.67,10.96v.72s0,78.5,0,78.5l18.67,11.12h1.02l16.67-9.92v20.16s18.67,11.12,18.67,11.12h1.02l18.67-11.12v-20.16s16.67,9.92,16.67,9.92h1.02l18.67-11.12v-79.21ZM81.21,66.51l16.7,9.81-16.7,9.94-16.7-9.94,16.7-9.81ZM64.03,78.36l16.18,9.63v54.28l-16.18,9.5v-73.41ZM80.21,144.59v18.57l-15.7-9.35,15.7-9.22ZM82.21,163.16v-18.57l15.7,9.22-15.7,9.35ZM98.39,151.77l-16.18-9.5v-54.28l16.18-9.63v73.41ZM134.76,76.17v19.46l-16.18-9.5v-19.49l16.18-9.63v19.16ZM117.58,107.61l-16.7-9.94,16.7-9.81,16.7,9.81-16.7,9.94ZM118.58,64.31v-18.57l15.7,9.22-15.7,9.35ZM116.58,45.74v18.57l-15.7-9.35,15.7-9.22ZM100.4,57l16.18,9.63v19.49l-16.18,9.5v-38.63ZM100.4,99.71l16.18,9.63v54.28l-16.18,9.5v-73.41ZM116.58,165.94v18.57l-15.7-9.35,15.7-9.22ZM118.58,184.51v-18.57l15.7,9.22-15.7,9.35ZM134.76,173.12l-16.18-9.5v-54.28l16.18-9.63v73.41ZM154.94,67.09l15.7,9.22-15.7,9.35v-18.57ZM152.94,67.09v18.57l-15.7-9.35,15.7-9.22ZM136.76,78.36l16.18,9.63v54.28l-16.18,9.5v-73.41ZM153.94,163.75l-16.7-9.95,16.7-9.81,16.7,9.81-16.7,9.95ZM171.12,151.77l-16.18-9.5v-54.28l16.18-9.63v73.41Z"/><path d="M264.37,143.61l-.85-8.52c-2.93,4.92-9.84,9.93-20.53,9.93-17.51,0-33.02-12.87-33.02-35.01s16.37-34.92,33.78-34.92c16.28,0,26.68,9.37,30.28,20.44l-10.69,4.07c-2.27-7.57-8.89-14-19.59-14s-22.24,7.76-22.24,24.41,10.6,24.6,22.14,24.6c13.53,0,18.64-9.27,19.21-15.04h-22.14v-9.94h32.83v33.97h-9.18Z" fill="#231f20"/><path d="M310.82,108.41c-1.23-.19-2.46-.28-3.6-.28-8.52,0-12.4,4.92-12.4,13.53v21.95h-10.98v-46.08h10.69v7.38c2.18-5.01,7.29-7.95,13.34-7.95,1.32,0,2.46.19,2.93.28v11.17Z" fill="#231f20"/><path d="M357.92,130.46c-2.46,8.04-9.75,14.57-20.82,14.57-12.49,0-23.56-9.08-23.56-24.7,0-14.57,10.79-24.22,22.43-24.22,14.19,0,22.52,9.37,22.52,23.94,0,1.8-.19,3.31-.28,3.5h-33.68c.28,7,5.77,12.02,12.58,12.02s10.03-3.5,11.54-8.04l9.27,2.93ZM347.42,115.51c-.19-5.39-3.79-10.22-11.36-10.22-6.91,0-10.88,5.3-11.26,10.22h22.62Z" fill="#231f20"/><path d="M367.23,162.25l11.07-24.13-19.68-40.59h12.4l13.25,29.14,12.39-29.14h11.64l-29.33,64.72h-11.73Z" fill="#231f20"/><path d="M454.23,97.53l10.88,31.89,9.18-31.89h11.17l-14.76,46.08h-10.98l-11.45-33.12-11.17,33.12h-11.26l-14.95-46.08h11.73l9.37,31.89,10.88-31.89h11.35Z" fill="#231f20"/><path d="M501.01,117.21l11.83-1.8c2.65-.38,3.41-1.7,3.41-3.31,0-3.88-2.65-7-8.7-7s-8.99,3.69-9.46,8.33l-10.03-2.27c.85-7.95,8.04-15.04,19.4-15.04,14.19,0,19.59,8.04,19.59,17.22v22.9c0,4.16.47,6.91.57,7.38h-10.22c-.1-.28-.47-2.18-.47-5.87-2.18,3.5-6.72,7.29-14.19,7.29-9.65,0-15.61-6.62-15.61-13.91,0-8.23,6.06-12.77,13.91-13.91ZM516.24,124.5v-2.08l-12.02,1.8c-3.41.57-6.15,2.46-6.15,6.25,0,3.12,2.37,5.96,6.72,5.96,6.15,0,11.45-2.93,11.45-11.92Z" fill="#231f20"/><path d="M536.91,143.61v-68.5h10.98v68.5h-10.98Z" fill="#231f20"/><path d="M557.97,143.61v-68.5h10.98v68.5h-10.98Z" fill="#231f20"/><rect width="630.98" height="230.26" fill="none"/></g></svg>