<?xml version="1.0" encoding="UTF-8"?><svg id="b" xmlns="http://www.w3.org/2000/svg" viewBox="0 0 660.98 230.26"><g id="c"><path d="M153.83,75.45l-18.67-10.96h-1.01l-16.68,9.79v-20.19s-18.67-10.96-18.67-10.96h-1.01l-18.67,10.96v20.19s-16.68-9.79-16.68-9.79h-1.01l-18.67,10.96v.72s0,78.5,0,78.5l18.67,11.12h1.02l16.67-9.92v20.16s18.67,11.12,18.67,11.12h1.02l18.67-11.12v-20.16s16.67,9.92,16.67,9.92h1.02l18.67-11.12v-79.21ZM61.93,66.51l16.7,9.81-16.7,9.94-16.7-9.94,16.7-9.81ZM44.75,78.36l16.18,9.63v54.28l-16.18,9.5v-73.41ZM60.93,144.59v18.57l-15.7-9.35,15.7-9.22ZM62.93,163.16v-18.57l15.7,9.22-15.7,9.35ZM79.11,151.77l-16.18-9.5v-54.28l16.18-9.63v73.41ZM115.47,76.17v19.46l-16.18-9.5v-19.49l16.18-9.63v19.16ZM98.29,107.61l-16.7-9.94,16.7-9.81,16.7,9.81-16.7,9.94ZM99.29,64.31v-18.57l15.7,9.22-15.7,9.35ZM97.29,45.74v18.57l-15.7-9.35,15.7-9.22ZM81.11,57l16.18,9.63v19.49l-16.18,9.5v-38.63ZM81.11,99.71l16.18,9.63v54.28l-16.18,9.5v-73.41ZM97.29,165.94v18.57l-15.7-9.35,15.7-9.22ZM99.29,184.51v-18.57l15.7,9.22-15.7,9.35ZM115.47,173.12l-16.18-9.5v-54.28l16.18-9.63v73.41ZM135.66,67.09l15.7,9.22-15.7,9.35v-18.57ZM133.66,67.09v18.57l-15.7-9.35,15.7-9.22ZM117.47,78.36l16.18,9.63v54.28l-16.18,9.5v-73.41ZM134.66,163.75l-16.7-9.95,16.7-9.81,16.7,9.81-16.7,9.95ZM151.84,151.77l-16.18-9.5v-54.28l16.18-9.63v73.41Z"/><path d="M245.09,143.61l-.85-8.52c-2.93,4.92-9.84,9.93-20.53,9.93-17.5,0-33.02-12.87-33.02-35.01s16.37-34.92,33.78-34.92c16.27,0,26.68,9.37,30.28,20.44l-10.69,4.07c-2.27-7.57-8.89-14-19.59-14s-22.24,7.76-22.24,24.41,10.6,24.6,22.14,24.6c13.53,0,18.64-9.27,19.21-15.04h-22.14v-9.94h32.83v33.97h-9.18Z"/><path d="M291.54,108.41c-1.23-.19-2.46-.28-3.6-.28-8.52,0-12.39,4.92-12.39,13.53v21.95h-10.98v-46.08h10.69v7.38c2.18-5.01,7.29-7.95,13.34-7.95,1.33,0,2.46.19,2.93.28v11.17Z"/><path d="M338.36,130.46c-2.46,8.04-9.75,14.57-20.82,14.57-12.49,0-23.56-9.08-23.56-24.7,0-14.57,10.79-24.22,22.42-24.22,14.19,0,22.52,9.37,22.52,23.94,0,1.8-.19,3.31-.28,3.5h-33.68c.28,7,5.77,12.02,12.58,12.02s10.03-3.5,11.54-8.04l9.27,2.93ZM327.86,115.51c-.19-5.39-3.79-10.22-11.35-10.22-6.91,0-10.88,5.3-11.26,10.22h22.61Z"/><path d="M347.66,162.25l11.07-24.13-19.68-40.59h12.39l13.25,29.14,12.4-29.14h11.64l-29.33,64.72h-11.73Z"/><path d="M393.56,161.59v-64.06h10.6v6.25c2.27-3.97,7.57-7.29,14.67-7.29,13.62,0,21.29,10.41,21.29,24.03s-8.42,24.22-21.67,24.22c-6.62,0-11.64-2.84-14-6.34v23.18h-10.88ZM416.74,106.23c-7.19,0-12.39,5.68-12.39,14.29s5.2,14.48,12.39,14.48,12.4-5.68,12.4-14.48-5.01-14.29-12.4-14.29Z"/><path d="M472.94,108.41c-1.23-.19-2.46-.28-3.6-.28-8.52,0-12.39,4.92-12.39,13.53v21.95h-10.98v-46.08h10.69v7.38c2.18-5.01,7.29-7.95,13.34-7.95,1.33,0,2.46.19,2.93.28v11.17Z"/><path d="M521.49,120.52c0,14.19-10.12,24.51-23.94,24.51s-23.84-10.31-23.84-24.51,10.12-24.41,23.84-24.41,23.94,10.31,23.94,24.41ZM510.42,120.52c0-9.56-6.06-14.48-12.87-14.48s-12.87,4.92-12.87,14.48,6.15,14.67,12.87,14.67,12.87-5.01,12.87-14.67Z"/><path d="M538.37,120.33l-16.46-22.8h13.06c.85,1.42,9.27,13.44,10.12,14.76l10.03-14.76h12.49l-16.18,22.61,16.75,23.47h-12.87l-10.69-15.42c-.95,1.42-9.56,14-10.41,15.42h-12.58l16.75-23.28Z"/><path d="M577.17,162.25l11.07-24.13-19.68-40.59h12.4l13.25,29.14,12.39-29.14h11.64l-29.33,64.72h-11.73Z"/><rect width="660.98" height="230.26" fill="none"/></g></svg>